PathFileType	4	(X/Y/Z)	Walk8.trc
DataRate	CameraRate	NumFrames	NumMarkers	Units	OrigDataRate	OrigDataStartFrame	OrigNumFrames
200.000000	200.000000	8	61	mm	200.000000	400	735
Frame#	Times		RCAR		LToe		LMT5		RWRR		LTB4		LMT1		LTB1		LTB3		RWRU		LLFC		RACR1		LUA1		LFA1		LElbow		STRN		LCAR		RFHD		RTH3		LACR1		LASI		LWRU		RTB2		RLFC		C7		LPSI		LWRR		RToe		RMT1		RMT5		LFHD		RPSI		LMFC		RMFC		CLAV		RTH2		RTB1		LTH3		RTB4		RTB3		LTH2		RCAL		LTH1		RASI		LTH4		RFA1		LTB2		RLMAL		RMMAL		LBHD		RBHD		RElbow		RUA1		RTH4		RBack		LMMAL		RTH1		LCAL		T10		LElbowM		LLMAL		RElbowM
			X1	Y1	Z1	X2	Y2	Z2	X3	Y3	Z3	X4	Y4	Z4	X5	Y5	Z5	X6	Y6	Z6	X7	Y7	Z7	X8	Y8	Z8	X9	Y9	Z9	X10	Y10	Z10	X11	Y11	Z11	X12	Y12	Z12	X13	Y13	Z13	X14	Y14	Z14	X15	Y15	Z15	X16	Y16	Z16	X17	Y17	Z17	X18	Y18	Z18	X19	Y19	Z19	X20	Y20	Z20	X21	Y21	Z21	X22	Y22	Z22	X23	Y23	Z23	X24	Y24	Z24	X25	Y25	Z25	X26	Y26	Z26	X27	Y27	Z27	X28	Y28	Z28	X29	Y29	Z29	X30	Y30	Z30	X31	Y31	Z31	X32	Y32	Z32	X33	Y33	Z33	X34	Y34	Z34	X35	Y35	Z35	X36	Y36	Z36	X37	Y37	Z37	X38	Y38	Z38	X39	Y39	Z39	X40	Y40	Z40	X41	Y41	Z41	X42	Y42	Z42	X43	Y43	Z43	X44	Y44	Z44	X45	Y45	Z45	X46	Y46	Z46	X47	Y47	Z47	X48	Y48	Z48	X49	Y49	Z49	X50	Y50	Z50	X51	Y51	Z51	X52	Y52	Z52	X53	Y53	Z53	X54	Y54	Z54	X55	Y55	Z55	X56	Y56	Z56	X57	Y57	Z57	X58	Y58	Z58	X59	Y59	Z59	X60	Y60	Z60	X61	Y61	Z61

400	2	-288.56	863.57	373.99	-120.36	32.619	-35.854	-223.13	29.87	-104.8	-348.95	898.24	368.77	-322.01	284.66	-22.874	-175.73	46.367	-17.596	-326.29	369.45	-30.043	-313.06	198.97	-17.082	-283.75	901.84	308.78	-382.92	505.12	-141.29	-384.37	1507.7	207.12	-429.47	1360.2	-246.27	-388.67	1062.4	-305.66	-470.74	1193.6	-295.56	-278.43	1304.6	8.4516	-345.6	899.04	-319.92	-262.14	1708.9	104.03	-484.81	641.15	221.87	-411.53	1542.5	-161.15	-351.41	1040.7	-144.67	-418.18	933.41	-320.04	-612.49	313.77	192.83	-488.11	513.76	222.34	-505.97	1567.8	38.542	-579.28	1085.8	-55.184	-344.37	935.89	-262.28	-724.48	26.224	97.613	-741.29	75.612	92.526	-790.76	77.423	178.73	-254.34	1716.1	-0.326	-583.59	1076.7	54.642	-378.6	506.37	1.1256	-487.73	499.71	75.505	-341.13	1478	7.5997	-428.86	729.42	224.26	-543.6	373.34	137.77	-382.96	652.35	-168.88	-611.97	319.5	130.97	-678.49	267.08	123.75	-337.76	748.16	-183.64	-860.76	253.38	126.35	-410.68	821.57	-202.35	-373.81	1042.9	169.36	-396.85	736.31	-187.01	-338.21	1040.4	336.64	-297.93	281.18	-81.574	-805.33	220.56	168.41	-763.11	218.3	76.228	-418.56	1703	-33.433	-433.25	1697.2	107.95	-427.81	1167.6	328.2	-391.82	1327	279.28	-489.07	724.2	224.84	-555.51	1447.4	158.49	-319.23	98.33	26.936	-491.77	812.88	228.62	-401.35	42.982	-27.939	-561.8	1213.1	6.4189	-504.63	1166.3	-211.58	-338.92	66.805	-71.81	-461.36	1139.4	240.23
401	2.005	-287.1	863.07	374.18	-120.37	32.437	-36.058	-223.19	29.816	-104.94	-347.23	898.22	368.73	-321.35	284.7	-23.304	-175.66	46.364	-17.776	-325.38	369.47	-30.611	-312.67	198.99	-17.413	-281.8	901.27	308.94	-381.43	505.26	-142.02	-379.21	1507.9	206.71	-424.49	1360.9	-247.05	-382.72	1063.5	-306.39	-465.53	1194.4	-296.78	-273.4	1304.8	7.7754	-338.59	900.46	-320.21	-257.13	1709.4	103.84	-475.34	640.7	221.8	-406.39	1543	-161.56	-346.86	1041.1	-145.05	-411.4	934.3	-320.61	-602.82	315.06	192.72	-477.06	513.63	222.21	-500.76	1568.2	38.152	-574.67	1086.5	-55.361	-337.77	937.44	-262.68	-718.22	26.931	101.22	-733.93	77.419	95.007	-783.54	80.907	180.8	-249.29	1716.7	-0.50731	-578.83	1076.9	54.391	-377.46	506.53	0.44977	-476.97	499.62	75.214	-336.01	1478.4	7.1266	-420.48	729.67	223.88	-533.52	374.04	137.51	-380.27	652.73	-169.36	-602.43	320.83	130.9	-669.48	268.97	123.87	-334.49	748.28	-183.88	-851.84	257.05	126.36	-407.04	822.11	-202.82	-367.98	1043.5	168.57	-393.7	736.77	-187.46	-335.39	1040.3	336.47	-297.32	281.04	-82.021	-796.79	224.04	168.9	-754.41	220.7	76.658	-413.48	1703.4	-33.713	-428.25	1697.5	107.68	-424.12	1168.1	327.63	-387.43	1327.3	278.82	-480.61	723.71	224.73	-550.49	1447.9	157.84	-319.18	98.408	26.805	-484.33	812.38	228.36	-401.37	42.977	-27.974	-556.9	1213.6	6.1043	-499.66	1166.9	-212.95	-338.88	66.75	-71.915	-457.69	1139.9	239.64
402	2.01	-285.6	862.6	374.37	-120.41	32.302	-36.263	-223.26	29.756	-105.09	-345.48	898.2	368.69	-320.72	284.73	-23.742	-175.61	46.365	-17.959	-324.51	369.49	-31.185	-312.3	199.01	-17.753	-279.84	900.72	309.09	-379.96	505.41	-142.74	-374.09	1508.2	206.32	-419.49	1361.5	-247.81	-376.76	1064.6	-307.07	-460.3	1195	-297.99	-268.4	1305.1	7.1282	-331.57	901.87	-320.49	-252.13	1709.8	103.66	-465.88	640.31	221.67	-401.26	1543.4	-161.96	-342.34	1041.4	-145.44	-404.62	935.16	-321.17	-593.04	316.34	192.57	-466.04	513.59	222	-495.57	1568.6	37.771	-570.11	1087	-55.474	-331.17	938.96	-263.05	-711.22	27.77	104.95	-725.99	79.209	97.577	-775.74	84.333	182.97	-244.23	1717.2	-0.67116	-574.09	1077	54.2	-376.41	506.7	-0.21686	-466.23	499.63	74.836	-330.92	1478.6	6.6715	-412.14	729.97	223.49	-523.34	374.78	137.17	-377.53	653.12	-169.83	-592.77	322.13	130.78	-660.29	270.77	123.95	-331.18	748.43	-184.05	-842.79	260.36	126.26	-403.33	822.67	-203.24	-362.24	1044.1	167.86	-390.5	737.26	-187.89	-332.59	1040.1	336.3	-296.74	280.91	-82.479	-788.05	227.35	169.33	-745.47	222.91	77.033	-408.4	1703.7	-33.979	-423.26	1697.7	107.42	-420.48	1168.4	327.08	-383.09	1327.5	278.38	-472.17	723.28	224.58	-545.51	1448.4	157.2	-319.14	98.493	26.665	-476.91	811.9	228.08	-401.38	42.967	-28.008	-552.03	1214.1	5.8354	-494.69	1167.4	-214.3	-338.86	66.699	-72.02	-454.05	1140.4	239.06
403	2.015	-284.04	862.17	374.54	-120.45	32.208	-36.468	-223.33	29.694	-105.25	-343.72	898.18	368.63	-320.1	284.76	-24.183	-175.57	46.37	-18.143	-323.65	369.51	-31.758	-311.94	199.04	-18.099	-277.88	900.18	309.24	-378.53	505.55	-143.45	-369.02	1508.4	205.95	-414.48	1362.1	-248.55	-370.78	1065.6	-307.72	-455.04	1195.7	-299.18	-263.45	1305.3	6.5123	-324.54	903.27	-320.75	-247.13	1710.2	103.5	-456.46	639.99	221.47	-396.15	1543.8	-162.33	-337.86	1041.8	-145.84	-397.82	936.01	-321.72	-583.14	317.63	192.38	-455.07	513.64	221.71	-490.4	1569	37.402	-565.58	1087.6	-55.526	-324.58	940.46	-263.4	-703.48	28.728	108.73	-717.46	80.967	100.19	-767.35	87.663	185.22	-239.18	1717.7	-0.82012	-569.37	1077.2	54.067	-375.42	506.87	-0.86813	-455.52	499.73	74.383	-325.85	1478.9	6.235	-403.83	730.32	223.08	-513.05	375.54	136.76	-374.75	653.54	-170.29	-582.97	323.38	130.61	-650.93	272.47	123.99	-327.83	748.6	-184.16	-833.61	263.28	126.07	-399.54	823.24	-203.62	-356.6	1044.5	167.25	-387.26	737.77	-188.32	-329.8	1040	336.14	-296.19	280.78	-82.943	-779.1	230.45	169.7	-736.3	224.92	77.363	-403.33	1704.1	-34.23	-418.27	1697.9	107.18	-416.9	1168.8	326.53	-378.81	1327.7	277.97	-463.76	722.92	224.4	-540.58	1448.8	156.57	-319.09	98.581	26.519	-469.52	811.47	227.78	-401.4	42.953	-28.04	-547.19	1214.6	5.6094	-489.7	1167.8	-215.64	-338.84	66.653	-72.125	-450.43	1140.8	238.48
404	2.02	-282.44	861.76	374.71	-120.51	32.148	-36.668	-223.4	29.631	-105.41	-341.94	898.15	368.57	-319.5	284.79	-24.624	-175.55	46.377	-18.324	-322.81	369.53	-32.326	-311.59	199.07	-18.444	-275.9	899.66	309.39	-377.13	505.69	-144.14	-363.98	1508.6	205.61	-409.45	1362.7	-249.24	-364.79	1066.6	-308.33	-449.76	1196.3	-300.34	-258.52	1305.4	5.9297	-317.51	904.66	-320.99	-242.13	1710.5	103.36	-447.08	639.75	221.19	-391.04	1544.1	-162.68	-333.42	1042.1	-146.27	-391.02	936.83	-322.25	-573.15	318.92	192.18	-444.15	513.8	221.33	-485.26	1569.4	37.046	-561.09	1088.2	-55.523	-318	941.91	-263.73	-694.99	29.79	112.5	-708.36	82.683	102.81	-758.39	90.856	187.51	-234.13	1718.1	-0.95658	-564.66	1077.4	53.988	-374.47	507.06	-1.4983	-444.84	499.93	73.862	-320.81	1479.1	5.8179	-395.57	730.74	222.67	-502.66	376.32	136.28	-371.95	653.96	-170.74	-573.05	324.59	130.42	-641.39	274.06	124.01	-324.46	748.77	-184.23	-824.32	265.8	125.83	-395.7	823.82	-203.97	-351.09	1044.9	166.72	-383.97	738.29	-188.73	-327.04	1039.9	335.99	-295.66	280.66	-83.409	-769.93	233.31	170.03	-726.9	226.73	77.657	-398.28	1704.4	-34.467	-413.28	1698.1	106.96	-413.36	1169.1	325.99	-374.58	1327.9	277.59	-455.38	722.62	224.17	-535.68	1449.3	155.95	-319.03	98.672	26.372	-462.18	811.08	227.46	-401.43	42.936	-28.07	-542.37	1215	5.4223	-484.69	1168.3	-216.96	-338.84	66.615	-72.227	-446.84	1141.3	237.89
405	2.025	-280.8	861.38	374.88	-120.58	32.115	-36.863	-223.48	29.567	-105.57	-340.13	898.13	368.5	-318.89	284.82	-25.058	-175.53	46.384	-18.498	-321.96	369.55	-32.882	-311.23	199.1	-18.783	-273.9	899.16	309.53	-375.75	505.82	-144.8	-358.99	1508.7	205.29	-404.41	1363.2	-249.91	-358.79	1067.6	-308.9	-444.45	1197	-301.47	-253.64	1305.6	5.3814	-310.49	906.03	-321.23	-237.12	1710.9	103.22	-437.75	639.58	220.85	-385.96	1544.5	-163.01	-329.02	1042.4	-146.72	-384.21	937.64	-322.77	-563.06	320.2	191.97	-433.31	514.07	220.88	-480.13	1569.8	36.705	-556.62	1088.7	-55.473	-311.43	943.34	-264.03	-685.77	30.938	116.18	-698.7	84.343	105.39	-748.86	93.87	189.79	-229.08	1718.5	-1.0828	-559.96	1077.5	53.96	-373.54	507.25	-2.1019	-434.21	500.21	73.284	-315.78	1479.3	5.4209	-387.37	731.21	222.25	-492.15	377.12	135.75	-369.14	654.38	-171.18	-563	325.72	130.21	-631.67	275.53	124.02	-321.08	748.94	-184.25	-814.91	267.91	125.57	-391.81	824.4	-204.28	-345.71	1045.2	166.27	-380.67	738.81	-189.13	-324.3	1039.7	335.84	-295.15	280.53	-83.872	-760.55	235.9	170.33	-717.28	228.32	77.923	-393.22	1704.7	-34.69	-408.29	1698.3	106.76	-409.88	1169.4	325.46	-370.39	1328	277.24	-447.05	722.39	223.89	-530.82	1449.7	155.35	-318.98	98.764	26.227	-454.89	810.75	227.1	-401.45	42.916	-28.094	-537.58	1215.5	5.2694	-479.66	1168.7	-218.24	-338.84	66.584	-72.324	-443.27	1141.6	237.31
406	2.03	-279.12	861.04	375.03	-120.65	32.102	-37.048	-223.55	29.504	-105.72	-338.31	898.1	368.42	-318.28	284.84	-25.479	-175.53	46.392	-18.664	-321.11	369.57	-33.42	-310.87	199.12	-19.112	-271.89	898.68	309.66	-374.38	505.96	-145.43	-354.03	1508.8	205	-399.34	1363.7	-250.54	-352.78	1068.5	-309.42	-439.12	1197.5	-302.56	-248.78	1305.7	4.868	-303.46	907.39	-321.45	-232.11	1711.1	103.09	-428.48	639.5	220.44	-380.89	1544.8	-163.32	-324.65	1042.7	-147.18	-377.4	938.44	-323.27	-552.88	321.46	191.78	-422.54	514.47	220.38	-475.02	1570.2	36.38	-552.18	1089.2	-55.384	-304.87	944.73	-264.31	-675.83	32.153	119.72	-688.5	85.934	107.87	-738.78	96.668	192.04	-224.03	1718.9	-1.2007	-555.27	1077.7	53.975	-372.59	507.45	-2.6742	-423.63	500.57	72.658	-310.78	1479.5	5.045	-379.23	731.76	221.82	-481.54	377.94	135.17	-366.34	654.78	-171.61	-552.82	326.79	130	-621.78	276.86	124.03	-317.71	749.1	-184.26	-805.38	269.61	125.32	-387.91	824.97	-204.56	-340.46	1045.4	165.89	-377.37	739.32	-189.52	-321.58	1039.6	335.7	-294.64	280.4	-84.324	-750.94	238.21	170.61	-707.45	229.7	78.166	-388.18	1705.1	-34.898	-403.29	1698.5	106.58	-406.45	1169.7	324.93	-366.26	1328.2	276.91	-438.78	722.23	223.56	-525.99	1450.2	154.78	-318.92	98.854	26.088	-447.66	810.46	226.71	-401.47	42.894	-28.114	-532.81	1215.9	5.1454	-474.61	1169.1	-219.49	-338.86	66.562	-72.416	-439.71	1142	236.71
407	2.035	-277.4	860.72	375.18	-120.72	32.103	-37.222	-223.62	29.443	-105.88	-336.47	898.07	368.33	-317.66	284.85	-25.883	-175.54	46.399	-18.819	-320.23	369.59	-33.933	-310.5	199.15	-19.425	-269.86	898.22	309.79	-373	506.1	-146.02	-349.1	1508.9	204.74	-394.25	1364.2	-251.13	-346.76	1069.5	-309.9	-433.76	1198.1	-303.61	-243.94	1305.8	4.3891	-296.44	908.73	-321.65	-227.1	1711.4	102.97	-419.28	639.49	219.95	-375.84	1545.1	-163.61	-320.32	1043	-147.67	-370.6	939.22	-323.75	-542.6	322.7	191.59	-411.86	514.98	219.81	-469.94	1570.6	36.071	-547.77	1089.6	-55.263	-298.32	946.09	-264.57	-665.21	33.414	123.05	-677.8	87.445	110.21	-728.15	99.214	194.19	-218.98	1719.3	-1.3119	-550.59	1077.9	54.028	-371.61	507.66	-3.211	-413.09	501.01	71.991	-305.8	1479.7	4.691	-371.16	732.36	221.39	-470.8	378.77	134.54	-363.58	655.17	-172.03	-542.53	327.78	129.79	-611.71	278.04	124.04	-314.36	749.24	-184.25	-795.73	270.89	125.11	-384	825.52	-204.81	-335.32	1045.6	165.58	-374.08	739.81	-189.89	-318.88	1039.5	335.58	-294.12	280.27	-84.759	-741.11	240.19	170.87	-697.42	230.86	78.392	-383.14	1705.4	-35.091	-398.3	1698.6	106.41	-403.06	1169.9	324.41	-362.16	1328.3	276.6	-430.57	722.14	223.17	-521.19	1450.6	154.23	-318.86	98.941	25.957	-440.48	810.24	226.29	-401.5	42.872	-28.128	-528.06	1216.4	5.0449	-469.52	1169.4	-220.7	-338.87	66.549	-72.501	-436.17	1142.3	236.12
